<svg width="156" height="26" viewBox="0 0 156 26" fill="none" xmlns="http://www.w3.org/2000/svg">
<path d="M0.82 26L12.16 0.799998H16.768L28.144 26H23.248L13.492 3.284H15.364L5.644 26H0.82ZM6.04 20.168L7.3 16.496H20.908L22.168 20.168H6.04ZM31.3488 26V0.799998H35.2008L51.0048 20.204H49.0968V0.799998H53.7408V26H49.8888L34.0848 6.596H35.9928V26H31.3488ZM60.4934 26V0.799998H65.1734V26H60.4934ZM94.9113 26V0.799998H99.5913V26H94.9113ZM106.407 26V0.799998H111.087V22.04H124.263V26H106.407ZM127.958 26V0.799998H131.81L142.826 19.196H140.81L151.646 0.799998H155.498L155.534 26H151.106L151.07 7.748H152.006L142.79 23.12H140.702L131.342 7.748H132.422V26H127.958Z" fill="white"/>
<path d="M76.2735 12.392H88.8375V16.352H76.2735V12.392ZM76.6695 26H71.9895V0.799998H90.3855V4.724H76.6695V26Z" fill="#007DFF"/>
</svg>
